<svg xmlns="http://www.w3.org/2000/svg" xmlns:xlink="http://www.w3.org/1999/xlink" width="1024" zoomAndPan="magnify" viewBox="0 0 768 767.999994" height="1024" preserveAspectRatio="xMidYMid meet" version="1.0"><defs><clipPath id="d4cf506f56"><path d="M 365 592 L 715.933594 592 L 715.933594 764 L 365 764 Z M 365 592 " clip-rule="nonzero"/></clipPath></defs><g clip-path="url(#d4cf506f56)"><path fill="#673ab7" d="M 365.863281 763.027344 C 397.855469 701.738281 450.472656 651.441406 513.140625 622.242188 C 575.8125 593.046875 648.164062 585.117188 715.671875 600.050781 C 632.921875 703.769531 498.457031 767.988281 365.863281 763.027344 " fill-opacity="1" fill-rule="nonzero"/></g><path fill="#673ab7" d="M 259.542969 718.210938 C 296.792969 618.417969 300.203125 506.328125 269.082031 404.453125 C 237.96875 302.578125 172.507812 211.523438 85.851562 149.574219 C 52.296875 351.230469 117.253906 571.425781 259.542969 718.210938 " fill-opacity="1" fill-rule="nonzero"/><path fill="#673ab7" d="M 335.125 715.257812 C 298.4375 581.9375 306.921875 436.609375 358.875 308.464844 C 410.824219 180.320312 505.933594 70.109375 625.105469 -0.0195312 C 645.304688 264.582031 535.988281 541.828125 335.125 715.257812 " fill-opacity="1" fill-rule="nonzero"/></svg>